<svg width="23" height="21" viewBox="0 0 23 21" fill="none" xmlns="http://www.w3.org/2000/svg">
<path id="Vector" d="M7.27829 6.33797L0.898288 7.26297L0.785288 7.28597C0.614228 7.33138 0.458283 7.42138 0.333381 7.54677C0.208478 7.67216 0.119092 7.82846 0.0743505 7.9997C0.0296092 8.17093 0.0311156 8.35098 0.078716 8.52144C0.126316 8.69191 0.218305 8.84668 0.345288 8.96997L4.96729 13.469L3.87729 19.824L3.86429 19.934C3.85382 20.1109 3.89055 20.2874 3.97074 20.4455C4.05092 20.6035 4.17167 20.7374 4.32062 20.8335C4.46958 20.9295 4.64138 20.9843 4.81844 20.9921C4.9955 20.9999 5.17145 20.9605 5.32829 20.878L11.0343 17.878L16.7273 20.878L16.8273 20.924C16.9923 20.989 17.1717 21.0089 17.347 20.9817C17.5224 20.9545 17.6873 20.8812 17.8249 20.7692C17.9625 20.6573 18.0678 20.5107 18.1301 20.3446C18.1924 20.1785 18.2094 19.9988 18.1793 19.824L17.0883 13.469L21.7123 8.96897L21.7903 8.88397C21.9017 8.74674 21.9748 8.58242 22.002 8.40776C22.0293 8.23311 22.0097 8.05435 21.9454 7.8897C21.881 7.72505 21.7742 7.5804 21.6358 7.47048C21.4973 7.36056 21.3322 7.28931 21.1573 7.26397L14.7773 6.33797L11.9253 0.557969C11.8428 0.390504 11.715 0.249484 11.5565 0.150874C11.398 0.0522634 11.215 0 11.0283 0C10.8416 0 10.6586 0.0522634 10.5001 0.150874C10.3416 0.249484 10.2138 0.390504 10.1313 0.557969L7.27829 6.33797Z" fill="#F4CE14"/>
</svg>
